<svg id="Layer_1" height="512" viewBox="0 0 512 512" width="512" xmlns="http://www.w3.org/2000/svg" data-name="Layer 1"><path d="m34 439.29v.71h-23v27h29v-27h23v-.71-194.29h-29z" fill="#d4e1f4"/><path d="m61.7 217.5a33.561 33.561 0 0 0 19.149-5.978l52.3 54.045a33.749 33.749 0 1 0 60.237 6.683l49.414-60.45a33.736 33.736 0 0 0 43.935-50.5l52.448-63.27a33.7 33.7 0 0 0 51.755-8.868l40.263 24a33.849 33.849 0 1 0 7.238-9.655l-43.557-25.97a33.755 33.755 0 1 0 -67.163-4.83 33.542 33.542 0 0 0 3.873 15.673l-54.3 65.5a33.732 33.732 0 0 0 -43.139 49.529l-47.289 57.858a33.684 33.684 0 0 0 -45.556-4.545l-51.947-53.665a33.74 33.74 0 1 0 -27.661 14.443zm399.7-111.031a21.757 21.757 0 1 1 -21.756 21.757 21.781 21.781 0 0 1 21.756-21.757zm-99.924-55.513a21.757 21.757 0 1 1 -21.757 21.756 21.781 21.781 0 0 1 21.757-21.756zm-99.925 111.027a21.757 21.757 0 1 1 -21.751 21.757 21.781 21.781 0 0 1 21.751-21.757zm-99.924 99.925a21.757 21.757 0 1 1 -21.757 21.756 21.781 21.781 0 0 1 21.757-21.756zm-99.927-99.925a21.757 21.757 0 1 1 -21.754 21.757 21.781 21.781 0 0 1 21.754-21.757z" fill="#1ae5be"/><g fill="#0635c9"><path d="m501 434h-7v-244.154a5.831 5.831 0 0 0 -5.953-5.846h-54.033a5.883 5.883 0 0 0 -6.014 5.846v244.154h-34v-299.667c0-3.314-2.564-6.333-5.878-6.333h-54.033a6.369 6.369 0 0 0 -6.089 6.333v299.667h-34v-188.64c0-3.314-2.488-6.36-5.8-6.36h-54.035a6.459 6.459 0 0 0 -6.165 6.36v188.64h-34v-88.716c0-3.313-2.413-6.284-5.727-6.284h-54.033a6.458 6.458 0 0 0 -6.24 6.284v88.716h-34v-188.64a6.379 6.379 0 0 0 -6.36-6.36h-53.324a6.334 6.334 0 0 0 -6.316 6.316v22.684a6 6 0 0 0 12 0v-17h42v183h-42v-124a6 6 0 0 0 -12 0v124h-17a5.717 5.717 0 0 0 -6 5.658v27.386a5.963 5.963 0 0 0 6 5.956h490a5.963 5.963 0 0 0 6-5.956v-27.386a5.717 5.717 0 0 0 -6-5.658zm-61-238h42v238h-42zm-100-56h42v294h-42zm-100 111h42v183h-42zm-100 100h42v83h-42zm355 110h-478v-15h478z"/><path d="m55 281.74a6 6 0 0 0 6-6v-7.08a6 6 0 0 0 -12 0v7.08a6 6 0 0 0 6 6z"/><path d="m49 347.972a6 6 0 0 0 12 0v-48.389a6 6 0 0 0 -12 0z"/></g></svg>