<?xml version="1.0" encoding="UTF-8"?>
<svg xmlns="http://www.w3.org/2000/svg" id="Layer_1" data-name="Layer 1" viewBox="0 0 512 512" width="512" height="512"><path d="M81.91,483h30A39.925,39.925,0,0,1,72,443V192.02A39.942,39.942,0,0,1,111.91,152h-30A39.942,39.942,0,0,0,42,192.02V443A39.925,39.925,0,0,0,81.91,483Z" style="fill:#d4e1f4"/><path d="M141.134,305.566a133.25,133.25,0,0,0,.9,34.774L127.7,354.085a6,6,0,0,0-1.344,6.736l16.63,38.007a6.007,6.007,0,0,0,5.937,3.579l19.833-1.458a119.879,119.879,0,0,0,25.216,24.019l-.583,19.806a6,6,0,0,0,3.837,5.774l38.686,14.932a6,6,0,0,0,6.7-1.678l12.852-14.9a133.2,133.2,0,0,0,34.773-.9l13.745,14.332a6.005,6.005,0,0,0,6.736,1.345l38.007-16.629a6,6,0,0,0,3.579-5.937l-1.458-19.832a119.928,119.928,0,0,0,24.019-25.216l19.807.583a6,6,0,0,0,5.773-3.838l14.931-38.686a6,6,0,0,0-1.677-6.7L398.81,334.572a133.25,133.25,0,0,0-.9-34.774l14.332-13.745a6,6,0,0,0,1.344-6.735l-16.628-38.007a6.012,6.012,0,0,0-5.937-3.58l-19.832,1.458a119.928,119.928,0,0,0-25.216-24.019l.583-19.806a6,6,0,0,0-3.837-5.774l-38.687-14.932a6,6,0,0,0-6.7,1.678l-12.851,14.9a133.121,133.121,0,0,0-34.78.9L235.954,177.8a6,6,0,0,0-6.735-1.344l-38.008,16.628a6,6,0,0,0-3.579,5.937l1.458,19.833a119.869,119.869,0,0,0-24.018,25.215l-19.807-.583a6.038,6.038,0,0,0-5.774,3.838L124.56,286.01a6,6,0,0,0,1.678,6.7Zm8.023-49.96,18.831.554a6.012,6.012,0,0,0,5.169-2.669,108.045,108.045,0,0,1,25.723-27.01,6,6,0,0,0,2.417-5.264l-1.386-18.841,30.281-13.248,13.048,13.606a6.007,6.007,0,0,0,5.41,1.749,121.356,121.356,0,0,1,37.518-.97,5.994,5.994,0,0,0,5.316-2.03l12.171-14.108,30.782,11.881-.554,18.831a6,6,0,0,0,2.669,5.169,108.01,108.01,0,0,1,27.01,25.723,6.007,6.007,0,0,0,5.264,2.417l18.841-1.386,13.248,30.281-13.606,13.048a6,6,0,0,0-1.749,5.41,121.287,121.287,0,0,1,.97,37.512,6,6,0,0,0,2.029,5.315l14.1,12.174-11.881,30.782-18.831-.554a6.019,6.019,0,0,0-5.169,2.669,108.01,108.01,0,0,1-25.723,27.01,6,6,0,0,0-2.416,5.264l1.385,18.841-30.28,13.248L296.7,437.4a6,6,0,0,0-5.41-1.749,121.286,121.286,0,0,1-37.512.97,6,6,0,0,0-5.316,2.03l-12.171,14.108L205.51,440.882l.554-18.831a6,6,0,0,0-2.67-5.169,108.006,108.006,0,0,1-27.009-25.723,5.993,5.993,0,0,0-5.264-2.416l-18.842,1.385L139.03,359.847l13.6-13.048a6,6,0,0,0,1.749-5.41,121.287,121.287,0,0,1-.97-37.512,6,6,0,0,0-2.03-5.315l-14.107-12.174Z" style="fill:#1ae5be"/><path d="M269.97,392.545A71.549,71.549,0,1,0,198.421,321,71.63,71.63,0,0,0,269.97,392.545Zm0-131.1A59.549,59.549,0,1,1,210.421,321,59.616,59.616,0,0,1,269.97,261.448Z" style="fill:#1ae5be"/><path d="M269.97,420.5a99.5,99.5,0,1,0-99.5-99.5A99.613,99.613,0,0,0,269.97,420.5ZM187.736,315H182.68a86.154,86.154,0,0,1,21.351-51.456l3.548,3.548a6,6,0,0,0,8.486-8.486l-3.534-3.548A86.192,86.192,0,0,1,264,233.706v5.057a6,6,0,1,0,12,0v-5.057a86.1,86.1,0,0,1,51.439,21.352l-3.556,3.547a6,6,0,1,0,8.479,8.486l3.548-3.547A86.153,86.153,0,0,1,357.26,315H352.2a6,6,0,1,0,0,12h5.056a86.14,86.14,0,0,1-21.351,51.452l-3.548-3.549a6,6,0,1,0-8.485,8.484l3.563,3.549A86.1,86.1,0,0,1,276,408.287V403.23a6,6,0,0,0-12,0v5.057a86.191,86.191,0,0,1-51.469-21.351l3.541-3.549a6,6,0,0,0-8.491-8.485l-3.549,3.55A86.141,86.141,0,0,1,182.68,327h5.056a6,6,0,0,0,0-12Z" style="fill:#1ae5be"/><path d="M270.072,344.2c-.035,0-.068,0-.1,0s-.067,0-.1,0a8.779,8.779,0,0,1-8.671-8.767,5.993,5.993,0,1,0-11.985,0A20.268,20.268,0,0,0,264,355.314V359a6,6,0,0,0,12,0v-3.681a20.243,20.243,0,0,0,14.758-19.881,20.8,20.8,0,0,0-20.78-20.772,8.773,8.773,0,1,1,8.766-8.773,6.007,6.007,0,0,0,12.014,0A20.243,20.243,0,0,0,276,286.007V283a6,6,0,0,0-12,0v3.008a20.268,20.268,0,0,0-14.787,19.881,20.79,20.79,0,0,0,20.765,20.773,8.77,8.77,0,0,1,.094,17.539Z" style="fill:#1ae5be"/><path d="M458.03,146H367V117.99A36.717,36.717,0,0,0,330.372,81h-120.8A36.667,36.667,0,0,0,173,117.99V146H81.911A46,46,0,0,0,36,192.025V443a45.973,45.973,0,0,0,45.911,46H458.03A46.024,46.024,0,0,0,504,443V192.025A46.048,46.048,0,0,0,458.03,146ZM333,146H207V117.99c0-1.655.914-2.99,2.569-2.99h120.8A2.7,2.7,0,0,1,333,117.99Zm86,12V477H121V158ZM185,117.99A24.655,24.655,0,0,1,209.569,93h120.8A24.7,24.7,0,0,1,355,117.99V146H345V117.99A14.7,14.7,0,0,0,330.372,103h-120.8A14.646,14.646,0,0,0,195,117.99V146H185ZM48,443V192.025A33.983,33.983,0,0,1,81.911,158H109V477H81.911A33.96,33.96,0,0,1,48,443Zm444,0a34.011,34.011,0,0,1-33.97,34H431V158h27.03A34.034,34.034,0,0,1,492,192.025Z" style="fill:#0635c9"/><path d="M64,202a6,6,0,0,0-6,6v7a6,6,0,0,0,12,0v-7A6,6,0,0,0,64,202Z" style="fill:#0635c9"/><path d="M64,227a6,6,0,0,0-6,6v89a6,6,0,0,0,12,0V233A6,6,0,0,0,64,227Z" style="fill:#0635c9"/></svg>
