<svg id="Layer_1" height="512" viewBox="0 0 512 512" width="512" xmlns="http://www.w3.org/2000/svg" data-name="Layer 1"><path d="m160 103.65v187.6a100.98 100.98 0 0 1 26.59 19.17q1.747 1.746 3.41 3.575v-210.345a8.855 8.855 0 0 1 8.95-8.65h-30a8.855 8.855 0 0 0 -8.95 8.65z" fill="#d4e1f4"/><path d="m113.923 303.681a79.516 79.516 0 1 0 79.515 79.519 79.607 79.607 0 0 0 -79.515-79.519zm0 147.032a67.516 67.516 0 1 1 67.515-67.513 67.593 67.593 0 0 1 -67.515 67.513z" fill="#1ae5be"/><path d="m113.923 355.684a10.579 10.579 0 0 1 10.568 10.567 6.02 6.02 0 0 0 12.039 0c0-10.366-7.53-19.117-16.53-21.751v-3.92a6 6 0 0 0 -12 0v3.92a22.119 22.119 0 0 0 -16.607 21.751 22.578 22.578 0 0 0 22.549 22.569 10.565 10.565 0 0 1 .1 21.13c-.039 0-.08-.006-.119-.006s-.078 0-.117.006a10.577 10.577 0 0 1 -10.453-10.562 5.981 5.981 0 1 0 -11.962 0 22.12 22.12 0 0 0 16.609 21.752v4.673a6 6 0 0 0 12 0v-4.673c9-2.635 16.53-11.385 16.53-21.752a22.611 22.611 0 0 0 -22.588-22.568 10.568 10.568 0 1 1 -.019-21.136z" fill="#1ae5be"/><g fill="#0635c9"><path d="m376.392 176a6 6 0 1 0 0-12h-6.563a6 6 0 1 0 0 12z"/><path d="m349.387 164h-96.22a6 6 0 0 0 0 12h96.22a6 6 0 0 0 0-12z"/><path d="m198.3 176h34.016a6 6 0 0 0 0-12h-34.016a6 6 0 0 0 0 12z"/><path d="m352 217a6 6 0 0 0 6 6h18.393a6 6 0 1 0 0-12h-18.393a6 6 0 0 0 -6 6z"/><path d="m313.019 211a6 6 0 0 0 0 12h25.065a6 6 0 1 0 0-12z"/><path d="m198.3 223h97.219a6 6 0 1 0 0-12h-97.219a6 6 0 0 0 0 12z"/><path d="m317.389 273a6 6 0 0 0 0-12h-119.089a6 6 0 0 0 0 12z"/><path d="m216.189 307a6 6 0 1 0 0 12h30.017a6 6 0 1 0 0-12z"/><path d="m481.877 200.435a30.9 30.9 0 0 0 -20.877 2.882v-139.024a23.377 23.377 0 0 0 -23.5-23.293h-116.559c-6.1-13-18.868-20.952-33.6-20.952s-27.488 7.952-33.593 20.952h-116.561a23.112 23.112 0 0 0 -23.187 23.293v215.707h12v-215.707a11.1 11.1 0 0 1 11.187-11.293h113.006a31.136 31.136 0 0 0 -.193 4.309v9.691h-51.7a6.281 6.281 0 0 0 -6.3 6.023v15.977h-23.05a14.868 14.868 0 0 0 -14.95 14.649v187.351h12v-187.351a2.863 2.863 0 0 1 2.95-2.649h23.05v13.928a6.323 6.323 0 0 0 6.3 6.072h178.092c3.313 0 5.608-2.759 5.608-6.072v-13.928h23.739c1.505 0 2.261 1.144 2.261 2.649v133.94l-115.381 75.921a5.69 5.69 0 0 0 -1.89 2.21h.056l-23.264 44.013a6.013 6.013 0 0 0 5.323 8.807h-.007l51.163-1.35v-.008a5.979 5.979 0 0 0 3.077-.974l80.923-53.184v27.976h-26.981a22.835 22.835 0 0 0 -23.019 23.132v26.868h-142v12h144.179a16.447 16.447 0 0 0 11.651-4.906l43.578-43.854a16.239 16.239 0 0 0 4.592-11.691v-37.4l29-18.712v141.028a11.568 11.568 0 0 1 -11.5 11.535h-241.5v12h241.5a23.583 23.583 0 0 0 23.5-23.535v-148.913l31.8-20.9a31.53 31.53 0 0 0 -10.924-57.222zm-111.877 182.879v-19.182a10.826 10.826 0 0 1 11.019-11.132h19.181zm0-274.314h-166v-30h51.916a6.053 6.053 0 0 0 6.084-5.977v-15.714a25.5 25.5 0 0 1 51 0v15.714a5.791 5.791 0 0 0 5.773 5.977h51.227zm35.739-20h-23.739v-15.977c0-3.313-2.3-6.023-5.608-6.023h-51.392v-9.691a26.59 26.59 0 0 0 -.5-4.309h113a11.363 11.363 0 0 1 11.5 11.293v146.707l-29 18.711v-126.062c0-8.122-6.139-14.649-14.261-14.649zm51.861 130.684 7.425 11.3-153.139 100.566-7.429-11.3zm-160.9 110.616 16.546 25.179-30.292.794zm29.2 22.587-7.429-11.306 153.14-100.568 7.432 11.31zm163-107.422-21.09-32.1a19.506 19.506 0 0 1 21.09 32.1z"/><path d="m181 114.168a6 6 0 0 0 -6 6v2.985a6 6 0 0 0 12 0v-2.985a6 6 0 0 0 -6-6z"/><path d="m181 136.463a6 6 0 0 0 -6 6v86.668a6 6 0 0 0 12 0v-86.668a6 6 0 0 0 -6-6z"/></g><path d="m113.923 273.7a109.5 109.5 0 1 0 109.5 109.5 109.624 109.624 0 0 0 -109.5-109.5zm92.228 115.3h5.018a95.715 95.715 0 0 1 -24.269 58.587l-3.515-3.466a6.013 6.013 0 0 0 -8.485 8.522l3.555 3.521a97.837 97.837 0 0 1 -58.455 24.279v-5.017a6 6 0 1 0 -12 0v5.017a98.052 98.052 0 0 1 -58.528-24.272l3.5-3.516a6 6 0 0 0 -8.5-8.485l-3.518 3.417a95.709 95.709 0 0 1 -24.278-58.587h5.017a6 6 0 0 0 0-12h-5.017a97.662 97.662 0 0 1 24.273-58.391l3.516 3.565a5.984 5.984 0 1 0 8.484-8.442l-3.477-3.512a98.043 98.043 0 0 1 58.528-24.269v5.017a6 6 0 0 0 12 0v-5.017a97.83 97.83 0 0 1 58.451 24.272l-3.535 3.515a5.994 5.994 0 1 0 8.467 8.486l3.515-3.614a97.661 97.661 0 0 1 24.271 58.39h-5.018a6 6 0 0 0 0 12z" fill="#1ae5be"/></svg>