<svg id="Layer_1" height="512" viewBox="0 0 512 512" width="512" xmlns="http://www.w3.org/2000/svg" data-name="Layer 1"><path d="m110.64 11h-30a34.672 34.672 0 0 0 -34.64 34.81v401.23a34.794 34.794 0 0 0 34.64 34.96h30a34.794 34.794 0 0 1 -34.64-34.96v-401.23a34.672 34.672 0 0 1 34.64-34.81z" fill="#d4e1f4"/><path d="m404.975 377.847-45.619 45.618-21.977-21.977a6 6 0 0 0 -8.484 8.485l26.219 26.22a6 6 0 0 0 8.485 0l49.86-49.86a6 6 0 0 0 -8.484-8.486z" fill="#1ae5be"/><g fill="#0635c9"><path d="m295.005 6.757a6 6 0 0 0 -4.242-1.757h-210.118a40.716 40.716 0 0 0 -40.645 40.812v401.231a40.84 40.84 0 0 0 40.645 40.957h234.355v-12h-234.355a28.826 28.826 0 0 1 -28.645-28.957v-401.231a28.7 28.7 0 0 1 28.645-28.812h204.355v72.476a37.344 37.344 0 0 0 37.152 37.524h72.848v188h12v-194.134a6.187 6.187 0 0 0 -1.943-4.242zm2 82.719v-63.991l89.139 89.515h-63.992a25.332 25.332 0 0 1 -25.152-25.524z"/><path d="m246.284 362h-149.379a6 6 0 1 0 0 12h149.379a6 6 0 0 0 0-12z"/><path d="m114 200a6 6 0 0 0 -6-6h-31a6 6 0 0 0 -6 6v82a6 6 0 0 0 6 6h31a6 6 0 0 0 6-6zm-31 6h19v70h-19z"/><path d="m322.428 264.785a78.381 78.381 0 0 0 -52.428-74.049v-89.482a6.236 6.236 0 0 0 -6.017-6.254h-30.7a6.467 6.467 0 0 0 -6.283 6.254v86.725a82.621 82.621 0 0 0 -9 2.575v-46.516a6.006 6.006 0 0 0 -5.968-6.038h-30.7a6.324 6.324 0 0 0 -6.33 6.038v82.262c-4 8.394-8 17.585-9 27.211v-78.771a5.715 5.715 0 0 0 -5.919-5.74h-30.7c-3.314 0-6.38 2.427-6.38 5.74v107.46c0 3.313 3.066 5.8 6.38 5.8h30.7a5.766 5.766 0 0 0 5.917-5.8v-6.142c2 16.712 10.1 32.142 22.25 44.291a78.6 78.6 0 0 0 134.178-55.562zm-168.428 11.215h-19v-95h19zm104-169v80.533a78.307 78.307 0 0 0 -19-1.187v-79.346zm-71 43h19v45.874a91.025 91.025 0 0 0 -17.89 13.349c-.33.33-.11.675-1.11 1.009zm56.853 181.362a66.579 66.579 0 0 1 -9.7-132.447 68.181 68.181 0 0 1 9.894-.725 65.928 65.928 0 0 1 46.884 19.518 66.577 66.577 0 0 1 -47.076 113.654z"/><path d="m253.511 307.074a42.825 42.825 0 0 1 -40.827-11.12 42.582 42.582 0 0 1 -2.256-57.8 5.789 5.789 0 1 0 11.572-.089v-14.58c0-3.314-2.264-6.485-5.577-6.485h-14.581a6 6 0 1 0 0 12h.224c-8.957 11-13.861 23.043-13.861 36.586a54.8 54.8 0 0 0 68.308 53.076 5.985 5.985 0 1 0 -3-11.588z"/><path d="m291.014 294h-.85c14.583-21 12.065-50.287-6.658-69.011a54.666 54.666 0 0 0 -48.051-15.1 6.027 6.027 0 0 0 2.065 11.875 42.631 42.631 0 0 1 44.731 62.5 6.244 6.244 0 0 0 -12.251 1.441v14.581c0 3.313 3.119 5.714 6.433 5.714h14.581a6 6 0 0 0 0-12z"/><path d="m244.168 247.041a5.935 5.935 0 0 1 5.929 5.928 6 6 0 0 0 6 6 5.929 5.929 0 0 0 5.916-6 17.937 17.937 0 0 0 -12.013-16.869v-1.609a6 6 0 0 0 -12 0v1.609a17.788 17.788 0 0 0 -11.846 16.874 17.986 17.986 0 0 0 17.972 17.926 5.927 5.927 0 0 1 .118 11.854c-.029 0-.052 0-.081 0s-.055 0-.085 0a5.932 5.932 0 0 1 -5.841-5.924 6 6 0 0 0 -6-6 6.072 6.072 0 0 0 -6.084 6 17.788 17.788 0 0 0 11.847 16.87v2.152a6 6 0 1 0 12 0v-2.152a17.9 17.9 0 0 0 -5.874-34.8 5.929 5.929 0 1 1 .042-11.857z"/><path d="m75 63.388a6 6 0 0 0 6-6v-4.295a6 6 0 0 0 -12 0v4.295a6 6 0 0 0 6 6z"/><path d="m69 154.388a6 6 0 0 0 12 0v-76a6 6 0 0 0 -12 0z"/><path d="m246.284 392h-149.379a6 6 0 1 0 0 12h149.379a6 6 0 0 0 0-12z"/><path d="m246.284 422h-149.379a6 6 0 1 0 0 12h149.379a6 6 0 0 0 0-12z"/></g><path d="m472.167 406.009a100.99 100.99 0 1 0 -100.99 100.991 101.1 101.1 0 0 0 100.99-100.991zm-100.99 88.991a88.991 88.991 0 1 1 88.99-88.991 89.091 89.091 0 0 1 -88.99 88.991z" fill="#1ae5be"/></svg>