<svg id="Layer_1" height="512" viewBox="0 0 512 512" width="512" xmlns="http://www.w3.org/2000/svg" data-name="Layer 1"><path d="m204.45 385c-1.53-23-13.75-45.51-33.08-59.87-38.67-28.72-63.31-73.74-63.13-124.58.284-80.735 65.958-149.272 149.179-156.533a174.007 174.007 0 0 0 -25.269-.33c-85.45 5.02-153.62 74.682-153.91 156.942-.18 50.84 24.46 95.775 63.13 124.5 19.33 14.355 31.55 36.871 33.08 59.871z" fill="#d4e1f4"/><g fill="#0635c9"><path d="m137.79 329.946a76.371 76.371 0 0 1 29.98 49.054h-4.546a6.51 6.51 0 0 0 -6.224 6.358v84.191a6.6 6.6 0 0 0 6.224 6.451h12.144l2.4 7.041a34.958 34.958 0 0 0 33.448 23.959h62.5a34.959 34.959 0 0 0 33.449-23.959l2.4-7.041h12.135a6.659 6.659 0 0 0 6.3-6.451v-84.191a6.574 6.574 0 0 0 -6.3-6.358h-4.5a76.036 76.036 0 0 1 29.584-48.682c41.88-31.487 65.9-78.524 65.9-129.2 0-44.369-18.147-85.871-51.1-116.942-34.331-32.385-81.662-49.311-129.784-46.476a171.772 171.772 0 0 0 -112.826 51.3c-29.991 30.6-46.588 70.153-46.737 111.528-.182 51.228 23.71 98.346 65.553 129.418zm178.21 61.054v18h-147v-18zm-20.232 88.28a22.985 22.985 0 0 1 -22.055 15.72h-62.5a22.983 22.983 0 0 1 -22.055-15.72l-1.158-3.28h108.925zm-126.768-15.28v-43h147v43zm-41.456-366.59a159.782 159.782 0 0 1 104.956-47.71c44.856-2.636 88.914 13.127 120.858 43.249 30.522 28.781 47.331 67.227 47.331 108.256 0 46.874-22.273 90.325-61.109 119.525a87.485 87.485 0 0 0 -34.515 58.27h-125.181a87.809 87.809 0 0 0 -34.94-58.688c-38.744-28.775-60.876-72.361-60.707-119.736.137-38.231 15.517-74.811 43.307-103.166z"/><path d="m186.922 433h-4.295a6 6 0 1 0 0 12h4.295a6 6 0 1 0 0-12z"/><path d="m263.922 433h-56a6 6 0 0 0 0 12h56a6 6 0 0 0 0-12z"/><path d="m214.125 69.813a6.052 6.052 0 0 0 1.2-.12c2.24-.454 4.527-.856 6.8-1.194a6 6 0 1 0 -1.771-11.869c-2.473.37-4.965.808-7.408 1.3a6 6 0 0 0 1.186 11.881z"/><path d="m189.72 77.644a6 6 0 0 0 -4.7-11.042 145.471 145.471 0 0 0 -88.647 134.056 6 6 0 0 0 12 0 133.489 133.489 0 0 1 81.347-123.014z"/></g><path d="m435.36 26.885-14.517-4.008-3.7-13.465a6 6 0 0 0 -9.411-3.193l-23.18 17.581a5.994 5.994 0 0 0 -1.773 2.161l-11.034 22.729a6 6 0 0 0 1.225 6.932l3.373 3.264-50.838 50.838a125.185 125.185 0 1 0 8.571 8.4l50.891-50.89 3.513 3.4a6 6 0 0 0 7 .982l22.167-11.835a6.014 6.014 0 0 0 1.7-1.359l18.947-21.822a6 6 0 0 0 -2.934-9.718zm-79.9 176.181a113.139 113.139 0 1 1 -38.454-84.847l-16.191 16.19a90.236 90.236 0 1 0 8.607 8.363l16.165-16.164a112.568 112.568 0 0 1 29.877 76.458zm-96.681-.689-22.461 4.323 4.461-21.773zm-17.506-33.677a6 6 0 0 0 -10.053 3.1l-8.458 41.285a6 6 0 0 0 7.011 7.1l42.6-8.2a6 6 0 0 0 3.042-10.2l-12.692-12.3 11.977-11.985a41.208 41.208 0 1 1 -8.749-8.22l-11.851 11.848zm33.267-8.006a53.272 53.272 0 1 0 8.689 8.28l17.693-17.692a78.033 78.033 0 1 1 -8.614-8.355zm119.145-101.725-9.247-8.948 5.51-11.351 14.8 14.391zm20.766-13.21-17.088-16.616 10.559-8.006 2.252 8.2a6 6 0 0 0 4.189 4.2l8.631 2.383z" fill="#1ae5be"/></svg>