<svg id="Capa_1" enable-background="new 0 0 512 512" height="512" viewBox="0 0 512 512" width="512" xmlns="http://www.w3.org/2000/svg"><g><path d="m256 245.254c46.28 0 83.932-37.647 83.932-83.921s-37.652-83.92-83.932-83.92-83.932 37.646-83.932 83.92 37.652 83.921 83.932 83.921zm0-137.845c29.738 0 53.932 24.191 53.932 53.924 0 29.734-24.193 53.925-53.932 53.925s-53.932-24.191-53.932-53.925c0-29.733 24.194-53.924 53.932-53.924z"/><path d="m164.612 312.131c22.735 30.777 13.601 18.808 79.086 112.303 5.952 8.531 18.609 8.571 24.595.013 65.781-93.939 56.73-82.041 79.095-112.317 22.655-30.672 46.083-62.388 58.921-99.554 18.581-53.801 10.549-107.034-22.614-149.894-.001 0-.001-.001-.002-.001-30.378-39.249-78.114-62.681-127.693-62.681s-97.315 23.432-127.694 62.683c-33.163 42.86-41.195 96.094-22.613 149.895 12.836 37.165 36.264 68.881 58.919 99.553zm-12.58-231.092c24.738-31.961 63.605-51.043 103.968-51.043s79.23 19.082 103.968 51.043l-.002-.001c26.767 34.592 33.153 77.83 17.985 121.748-11.339 32.828-33.38 62.667-54.695 91.524-16.596 22.467-11.629 15.595-67.256 95.333-55.569-79.658-50.665-72.873-67.256-95.333-21.315-28.857-43.356-58.697-54.695-91.524-15.168-43.919-8.782-87.156 17.983-121.747z"/><path d="m176.932 377.167c-4.424-7.002-13.688-9.095-20.692-4.67l-42.65 26.937c-9.304 5.876-9.313 19.478 0 25.36l134.4 84.888c4.893 3.091 11.129 3.09 16.021 0l134.4-84.888c9.305-5.876 9.313-19.478 0-25.36l-42.65-26.937c-7.006-4.424-16.269-2.332-20.692 4.67-4.425 7.003-2.333 16.266 4.671 20.69l22.574 14.257-106.314 67.148-106.313-67.148 22.574-14.257c7.004-4.423 9.095-13.686 4.671-20.69z"/></g></svg>