<svg height="419pt" viewBox="0 -69 419.012 419" width="419pt" xmlns="http://www.w3.org/2000/svg"><path d="m347 247.433594h-280c-18.214844-.019532-32.980469-14.78125-33-33v-187.425782c-.003906-3.777343.648438-7.527343 1.917969-11.082031-13.132813 4.699219-21.902344 17.132813-21.917969 31.082031v187.425782c.019531 18.21875 14.785156 32.980468 33 33h280c13.949219-.015625 26.382812-8.789063 31.082031-21.917969-3.558593 1.269531-7.304687 1.921875-11.082031 1.917969zm0 0" fill="#d4e1f4"/><path d="m419.011719 180.601562c0-2.363281-1.195313-4.570312-3.171875-5.859374l-105.636719-68.933594c-1.488281-.96875-3.289063-1.332032-5.035156-1.019532l66.359375-56.28125-9.054688-10.675781-127.671875 108.28125-52.808593.03125c-3.867188 0-7 3.136719-7 7l.011718 21.820313c-2.417968-1.105469-4.671875-2.53125-6.699218-4.25l-156.78125-132.753906-9.046876 10.683593 156.785157 132.761719c4.597656 3.894531 9.96875 6.78125 15.757812 8.464844l.011719 18.480468c0 3.863282 3.132812 7 7 7l117.410156-.074218.019532 34.398437c0 2.570313 1.410156 4.933594 3.671874 6.15625 2.261719 1.222657 5.011719 1.105469 7.160157-.300781l19-12.4375 22.636719 23.03125c2.710937 2.757812 7.140624 2.796875 9.898437.085938 2.757813-2.710938 2.796875-7.144532.085937-9.898438l-20.664062-21.039062 74.601562-48.8125c1.972657-1.296876 3.164063-3.5 3.160157-5.859376zm-119.222657-71.25c-.265624.746094-.40625 1.53125-.410156 2.320313l.023438 34.402344-42.941406.023437zm26.703126 118.847657-.046876.027343-12.992187 8.5-.015625-28.460937c0-3.867187-3.132812-7-7-7l-117.410156.070313-.023438-41.199219 117.40625-.070313c3.867188 0 7-3.136718 7-7l-.015625-28.464844 85.828125 56.007813zm0 0" fill="#1ae5be"/><path d="m111.539062 164.542969c-2.765624-2.703125-7.199218-2.652344-9.902343.113281l-89.597657 91.636719c-1.773437 1.785156-2.457031 4.382812-1.785156 6.804687.671875 2.425782 2.59375 4.304688 5.03125 4.917969 2.4375.617187 5.019532-.121094 6.761719-1.933594l89.601563-91.640625c2.703124-2.761718 2.652343-7.195312-.109376-9.898437zm0 0" fill="#1ae5be"/><path d="m374 234.433594v-20.589844l-14 9.160156v11.429688c-.019531 18.21875-14.785156 32.980468-33 33h-280c-18.214844-.019532-32.980469-14.78125-33-33v-187.425782c.019531-18.21875 14.785156-32.980468 33-33h280c18.214844.019532 32.980469 14.78125 33 33v91.296876l14 9.136718v-100.433594c-.027344-25.945312-21.054688-46.9726558-47-46.9999995h-280c-25.945312.0273437-46.9726562 21.0546875-47 46.9999995v187.425782c.0273438 25.945312 21.054688 46.972656 47 47h280c25.945312-.027344 46.972656-21.054688 47-47zm0 0" fill="#0635c9"/></svg>