<svg height="493pt" viewBox="0 -46 493.87648 493" width="493pt" xmlns="http://www.w3.org/2000/svg"><path d="m346 367.9375h-280c-18.214844-.019531-32.980469-14.78125-33-33v-187.425781c-.003906-3.777344.648438-7.527344 1.917969-11.082031-13.132813 4.699218-21.902344 17.132812-21.917969 31.082031v187.425781c.019531 18.21875 14.785156 32.980469 33 33h280c13.945312-.015625 26.382812-8.785156 31.082031-21.917969-3.558593 1.273438-7.304687 1.921875-11.082031 1.917969zm0 0" fill="#d4e1f4"/><path d="m381.605469 77.351562c-2.730469-2.734374-7.164063-2.734374-9.898438 0-2.734375 2.734376-2.734375 7.167969 0 9.902344l33.191407 33.183594h-92.695313c-3.863281 0-7 3.132812-7 7s3.136719 7 7 7h92.695313l-33.1875 33.1875c-2.734376 2.734375-2.734376 7.167969 0 9.902344 2.734374 2.734375 7.167968 2.734375 9.898437 0l45.140625-45.140625c2.734375-2.730469 2.734375-7.164063 0-9.898438zm0 0" fill="#1ae5be"/><path d="m367 .4375c-67.253906 0-122.851562 52.429688-126.789062 119.570312-.140626 2.460938-.210938 4.9375-.210938 7.429688 0 2.199219.058594 4.390625.171875 6.570312 1.511719 30.140626 13.75 58.746094 34.507813 80.652344 3.101562 3.277344 6.367187 6.390625 9.789062 9.328125l-78.660156 66.71875c-10.800782 9.210938-26.6875 9.21875-37.5.019531l-153.679688-130.128906-3.109375-2.628906c-1.765625-1.488281-4.148437-2.011719-6.375-1.402344-2.226562.613282-4.007812 2.28125-4.765625 4.460938v.011718c-.3554685 1.046876-.4609372 2.164063-.300781 3.257813.230469 1.699219 1.085937 3.253906 2.402344 4.351563l11.519531 9.761718 145.261719 123c16.023437 13.644532 39.585937 13.636719 55.597656-.023437l80.992187-68.6875c19 12.929687 41.191407 20.386719 64.148438 21.550781 2.320312.128906 4.652344.191406 7 .1875 2.351562 0 4.679688-.058594 7-.199219 68.621094-3.855469 121.722656-61.597656 119.828125-130.300781s-58.101563-123.433594-126.828125-123.5zm0 240c-24.058594.097656-47.503906-7.5625-66.859375-21.847656-.296875-.261719-.609375-.5-.941406-.710938-5.128907-3.871094-9.925781-8.167968-14.339844-12.839844-19.859375-20.953124-30.90625-48.734374-30.859375-77.601562v-.429688c.230469-62.242187 50.757812-112.578124 113-112.570312 62.40625 0 113 50.59375 113 113 0 62.410156-50.59375 113-113 113zm0 0" fill="#1ae5be"/><path d="m374 254.238281v100.199219c.011719 10.972656-3.835938 21.601562-10.871094 30.019531-.335937.648438-.769531 1.238281-1.289062 1.75-.324219.316407-.675782.597657-1.050782.851563-8.835937 9.195312-21.039062 14.386718-33.789062 14.378906h-280c-12.769531.003906-24.988281-5.207031-33.828125-14.417969-.363281-.246093-.707031-.519531-1.023437-.820312-.519532-.515625-.960938-1.109375-1.296876-1.761719-7.019531-8.421875-10.8593745-19.039062-10.851562-30v-187.429688c0-.910156.03125-1.820312.078125-2.710937.0625-1.097656.160156-2.179687.300781-3.257813v-.011718c3.035156-23.441406 22.984375-40.992188 46.621094-41.019532h193.210938c-.140626 2.460938-.210938 4.9375-.210938 7.429688 0 2.199219.058594 4.390625.171875 6.570312h-193.171875c-18.222656.003907-32.996094 14.777344-33 33v187.429688c-.003906 5.507812 1.375 10.925781 4.011719 15.761719l83.628906-85.539063c2.703125-2.765625 7.136719-2.816406 9.898437-.113281 2.765626 2.703125 2.8125 7.136719.109376 9.902344l-84.449219 86.367187c5.703125 4.308594 12.65625 6.632813 19.800781 6.621094h280c7.125.007812 14.0625-2.300781 19.761719-6.578125l-84.921875-86.402344c-2.707032-2.757812-2.667969-7.191406.089844-9.898437 2.757812-2.710938 7.191406-2.667969 9.898437.089844l84.132813 85.601562c2.652343-4.847656 4.042968-10.285156 4.039062-15.8125v-100.1875c2.320312.128906 4.652344.191406 7 .1875 2.351562 0 4.679688-.058594 7-.199219zm0 0" fill="#0635c9"/></svg>