<svg height="420pt" viewBox="-52 0 420 420" width="420pt" xmlns="http://www.w3.org/2000/svg"><path d="m40 64.515625c0-13.539063 11.222656-24.515625 25.066406-24.515625h240.933594v-5.484375c0-13.539063-11.222656-24.515625-25.066406-24.515625h-245.867188c-13.84375 0-25.066406 10.976562-25.066406 24.515625v350.96875c0 13.539063 11.222656 24.515625 25.066406 24.515625h4.933594zm0 0" fill="#d4e1f4"/><path d="m278.25 344.714844h-240.5c-5.523438 0-10-4.476563-10-10v-297.570313c0-5.523437 4.476562-10 10-10h240.5c5.523438 0 10 4.476563 10 10v297.570313c0 5.523437-4.476562 10-10 10zm-230.5-20h220.5v-277.570313h-220.5zm0 0" fill="#1ae5be"/><g fill="#0635c9"><path d="m280.933594 420h-245.867188c-19.335937 0-35.066406-15.484375-35.066406-34.515625v-350.96875c0-19.03125 15.730469-34.515625 35.066406-34.515625h245.867188c19.335937 0 35.066406 15.484375 35.066406 34.515625v350.96875c0 19.03125-15.730469 34.515625-35.066406 34.515625zm-245.867188-400c-8.308594 0-15.066406 6.511719-15.066406 14.515625v350.96875c0 8 6.757812 14.515625 15.066406 14.515625h245.867188c8.308594 0 15.066406-6.511719 15.066406-14.515625v-350.96875c0-8-6.757812-14.515625-15.066406-14.515625zm0 0"/><path d="m158 396.429688c-12.980469-.167969-23.378906-10.792969-23.269531-23.773438.109375-12.976562 10.691406-23.425781 23.671875-23.371094 12.980468.054688 23.472656 10.59375 23.472656 23.570313 0 6.304687-2.523438 12.347656-7.011719 16.777343-4.484375 4.429688-10.558593 6.878907-16.863281 6.796876zm0-27.144532c-1.933594.160156-3.390625 1.828125-3.285156 3.765625.105468 1.9375 1.734375 3.441407 3.675781 3.386719 1.9375-.050781 3.484375-1.640625 3.484375-3.582031-.089844-2.050781-1.820312-3.648438-3.875-3.570313zm0 0"/></g></svg>